<svg width="58" height="64" viewBox="0 0 58 64" fill="none" xmlns="http://www.w3.org/2000/svg">
<g filter="url(#filter0_d_95_9125)">
<path d="M4 49.457C4 51.3047 5.47357 52.8012 7.28912 52.8012H7.3364C5.49304 52.8012 4 51.3047 4 49.457Z" fill="#FBBC05"/>
<path d="M32.2662 23.5404V32.2714L43.7573 22.7769V14.3441C43.7573 12.4965 42.2837 11 40.4681 11H15.573L15.5508 23.5404H32.2662Z" fill="#FBBC05"/>
<path d="M32.2626 41.0058H15.5195L15.5 52.8022H40.4646C42.283 52.8022 43.7538 51.3057 43.7538 49.4581V41.8447L32.2626 32.2749V41.0058Z" fill="#34A853"/>
<path d="M15.5718 11L4 23.5404H15.5523L15.5718 11Z" fill="#EA4335"/>
<path d="M4 41.0049V49.4571C4 51.3048 5.49304 52.8013 7.3364 52.8013H15.5022L15.5217 41.0049H4Z" fill="#1967D2"/>
<path d="M15.5523 23.5405H4V41.0052H15.5217L15.5523 23.5405Z" fill="#4285F4"/>
<path d="M53.8588 46.4847V17.781C53.2109 13.9715 49.1322 18.3383 49.1322 18.3383L43.7578 22.7776V41.8419L51.451 48.2487C54.2285 48.6221 53.8588 46.4847 53.8588 46.4847Z" fill="#34A853"/>
<path d="M32.2666 32.2715L43.7605 41.8441V22.7798L32.2666 32.2715Z" fill="#188038"/>
</g>
<defs>
<filter id="filter0_d_95_9125" x="-1.5" y="-1" width="61" height="68" filterUnits="userSpaceOnUse" color-interpolation-filters="sRGB">
<feFlood flood-opacity="0" result="BackgroundImageFix"/>
<feColorMatrix in="SourceAlpha" type="matrix" values="0 0 0 0 0 0 0 0 0 0 0 0 0 0 0 0 0 0 127 0" result="hardAlpha"/>
<feOffset dy="1"/>
<feGaussianBlur stdDeviation="1"/>
<feColorMatrix type="matrix" values="0 0 0 0 0.0627451 0 0 0 0 0.0941176 0 0 0 0 0.156863 0 0 0 0.05 0"/>
<feBlend mode="normal" in2="BackgroundImageFix" result="effect1_dropShadow_95_9125"/>
<feBlend mode="normal" in="SourceGraphic" in2="effect1_dropShadow_95_9125" result="shape"/>
</filter>
</defs>
</svg>
