<svg width="64" height="54" viewBox="0 0 64 54" fill="none" xmlns="http://www.w3.org/2000/svg">
<path d="M0 49.6777C0 52.0645 1.89089 53.9976 4.22062 53.9976H4.28129C1.91588 53.9976 0 52.0645 0 49.6777Z" fill="#FBBC05"/>
<path d="M36.2713 16.1996V27.4781L51.0167 15.2132V4.31988C51.0167 1.93315 49.1258 0 46.7961 0H14.8506L14.822 16.1996H36.2713Z" fill="#FBBC05"/>
<path d="M36.2667 38.7614H14.7818L14.7568 53.9998H46.7916C49.1249 53.9998 51.0122 52.0667 51.0122 49.6799V39.845L36.2667 27.4829V38.7614Z" fill="#34A853"/>
<path d="M14.8489 0L0 16.1996H14.824L14.8489 0Z" fill="#EA4335"/>
<path d="M0 38.7598V49.6783C0 52.065 1.91588 53.9982 4.28129 53.9982H14.7597L14.7847 38.7598H0Z" fill="#1967D2"/>
<path d="M14.824 16.1997H0V38.7603H14.7847L14.824 16.1997Z" fill="#4285F4"/>
<path d="M63.979 45.8395V8.76051C63.1478 3.83945 57.9139 9.4805 57.9139 9.4805L51.0175 15.2151V39.8421L60.8894 48.1183C64.4536 48.6007 63.979 45.8395 63.979 45.8395Z" fill="#34A853"/>
<path d="M36.2719 27.4786L51.0209 39.8442V15.2173L36.2719 27.4786Z" fill="#188038"/>
</svg>
