<svg width="56" height="56" viewBox="0 0 56 56" fill="none" xmlns="http://www.w3.org/2000/svg">
<rect x="4" y="4" width="48" height="48" rx="24" fill="#B9EBE6"/>
<path d="M29 22.0001L22.5018 23.2997C22.1388 23.3723 21.9573 23.4086 21.8095 23.4969C21.6789 23.5749 21.5677 23.6818 21.4846 23.8093C21.3906 23.9535 21.3471 24.1334 21.2603 24.4932L18 38.0001M18 38.0001L31.5069 34.7398C31.8667 34.653 32.0466 34.6095 32.1908 34.5155C32.3183 34.4324 32.4252 34.3212 32.5032 34.1906C32.5915 34.0428 32.6278 33.8613 32.7004 33.4983L34 27.0001M18 38.0001L25.586 30.4141M36.8686 23.8687L32.1314 19.1315C31.7354 18.7354 31.5373 18.5374 31.309 18.4633C31.1082 18.398 30.8918 18.398 30.691 18.4633C30.4627 18.5374 30.2646 18.7354 29.8686 19.1315L29.1314 19.8687C28.7354 20.2647 28.5373 20.4627 28.4632 20.6911C28.3979 20.8919 28.3979 21.1083 28.4632 21.3091C28.5373 21.5374 28.7354 21.7354 29.1314 22.1315L33.8686 26.8687C34.2646 27.2647 34.4627 27.4627 34.691 27.5369C34.8918 27.6022 35.1082 27.6022 35.309 27.5369C35.5373 27.4627 35.7354 27.2647 36.1314 26.8687L36.8686 26.1315C37.2646 25.7354 37.4627 25.5374 37.5368 25.3091C37.6021 25.1083 37.6021 24.8919 37.5368 24.6911C37.4627 24.4627 37.2646 24.2647 36.8686 23.8687ZM27 27.0001C28.1046 27.0001 29 27.8955 29 29.0001C29 30.1047 28.1046 31.0001 27 31.0001C25.8954 31.0001 25 30.1047 25 29.0001C25 27.8955 25.8954 27.0001 27 27.0001Z" stroke="#1AAF9D" stroke-width="2" stroke-linecap="round" stroke-linejoin="round"/>
<rect x="4" y="4" width="48" height="48" rx="24" stroke="#E8F9F7" stroke-width="8"/>
</svg>
