<svg width="56" height="56" viewBox="0 0 56 56" fill="none" xmlns="http://www.w3.org/2000/svg">
<rect x="4" y="4" width="48" height="48" rx="24" fill="#B9EBE6"/>
<path d="M18 30L38 30M24 37H32M22.8 34H33.2C34.8802 34 35.7202 34 36.362 33.673C36.9265 33.3854 37.3854 32.9265 37.673 32.362C38 31.7202 38 30.8802 38 29.2V23.8C38 22.1198 38 21.2798 37.673 20.638C37.3854 20.0735 36.9265 19.6146 36.362 19.327C35.7202 19 34.8802 19 33.2 19H22.8C21.1198 19 20.2798 19 19.638 19.327C19.0735 19.6146 18.6146 20.0735 18.327 20.638C18 21.2798 18 22.1198 18 23.8V29.2C18 30.8802 18 31.7202 18.327 32.362C18.6146 32.9265 19.0735 33.3854 19.638 33.673C20.2798 34 21.1198 34 22.8 34Z" stroke="#1AAF9D" stroke-width="2" stroke-linecap="round" stroke-linejoin="round"/>
<rect x="4" y="4" width="48" height="48" rx="24" stroke="#E8F9F7" stroke-width="8"/>
</svg>
