<svg width="60" height="60" viewBox="0 0 60 60" fill="none" xmlns="http://www.w3.org/2000/svg">
<g clip-path="url(#clip0_1750_143557)">
<path d="M8.78683 51.2132C4.59124 47.0176 1.73401 41.6722 0.576455 35.8527C-0.581101 30.0333 0.0129987 24.0013 2.28363 18.5195C4.55426 13.0377 8.39941 8.35236 13.3329 5.05591C18.2664 1.75947 24.0666 -7.07556e-08 30 0C35.9335 7.07556e-08 41.7337 1.75947 46.6671 5.05591C51.6006 8.35236 55.4458 13.0377 57.7164 18.5195C59.9871 24.0013 60.5814 30.0333 59.4236 35.8527C58.266 41.6722 55.4088 47.0176 51.2132 51.2132L30 30L8.78683 51.2132Z" fill="#1DC0AD"/>
<path d="M60 30C60 26.0603 59.224 22.1593 57.7164 18.5195C56.2087 14.8797 53.999 11.5726 51.2132 8.78682C48.4274 6.00102 45.1202 3.79126 41.4805 2.28361C37.8407 0.775974 33.9397 -6.4185e-07 30 0V30H60Z" fill="#7ED2D8"/>
<path d="M44.8492 44.8492C42.4073 47.2912 39.4007 49.0933 36.096 50.0957C32.7912 51.0982 29.2902 51.2702 25.9031 50.5965C22.516 49.9228 19.3473 48.4241 16.6777 46.2332C14.0082 44.0423 11.9201 41.227 10.5985 38.0363C9.27697 34.8458 8.76265 31.3785 9.10111 27.9416C9.43963 24.5048 10.6205 21.2045 12.5392 18.333C14.4578 15.4616 17.055 13.1076 20.1007 11.4797C23.1464 9.8517 26.5465 9 30 9V17.8375C27.9998 17.8375 26.0306 18.3308 24.2666 19.2737C22.5027 20.2165 20.9985 21.5798 19.8873 23.2429C18.776 24.9059 18.0922 26.8174 17.8961 28.8079C17.7001 30.7984 17.9979 32.8065 18.7633 34.6544C19.5287 36.5023 20.7381 38.1328 22.2842 39.4017C23.8303 40.6706 25.6655 41.5385 27.6272 41.9288C29.5889 42.319 31.6166 42.2194 33.5306 41.6387C35.4446 41.0582 37.1858 40.0145 38.6002 38.6002L44.8492 44.8492Z" fill="#115B77"/>
</g>
<defs>
<clipPath id="clip0_1750_143557">
<rect width="60" height="60" fill="white"/>
</clipPath>
</defs>
</svg>
