<svg width="64" height="64" viewBox="0 0 64 64" fill="none" xmlns="http://www.w3.org/2000/svg">
<path d="M38 27.8065C38 26.8088 38.8088 26 39.8065 26H62.1935C63.1912 26 64 26.8088 64 27.8065V41C64 48.1797 58.1797 54 51 54C43.8203 54 38 48.1797 38 41V27.8065Z" fill="url(#paint0_linear_1453_139919)"/>
<path d="M18 24C18 22.8954 18.8954 22 20 22H48C49.1046 22 50 22.8954 50 24V44C50 52.8366 42.8366 60 34 60C25.1634 60 18 52.8366 18 44V24Z" fill="url(#paint1_linear_1453_139919)"/>
<circle cx="54" cy="16" r="6" fill="#34439E"/>
<circle cx="54" cy="16" r="6" fill="url(#paint2_linear_1453_139919)"/>
<circle cx="36" cy="12" r="8" fill="url(#paint3_linear_1453_139919)"/>
<mask id="mask0_1453_139919" style="mask-type:alpha" maskUnits="userSpaceOnUse" x="18" y="0" width="32" height="60">
<path d="M34 20C39.5229 20 44 15.5229 44 10C44 4.47705 39.5229 0 34 0C28.4771 0 24 4.47705 24 10C24 15.5229 28.4771 20 34 20Z" fill="url(#paint4_linear_1453_139919)"/>
<path d="M20.4517 22C19.0977 22 18 23.0977 18 24.4517V44C18 52.8367 25.1633 60 34 60C42.8367 60 50 52.8367 50 44V24.4517C50 23.0977 48.9023 22 47.5483 22H20.4517Z" fill="url(#paint5_linear_1453_139919)"/>
</mask>
<g mask="url(#mask0_1453_139919)">
<path d="M14 21C14 19.3431 15.3431 18 17 18H37C38.6569 18 40 19.3431 40 21V51C40 52.6569 38.6569 54 37 54H14V21Z" fill="black" fill-opacity="0.3"/>
</g>
<rect y="14" width="36" height="36" rx="2" fill="url(#paint6_linear_1453_139919)"/>
<path d="M26 22H10V25.6695H15.9899V42H20.0101V25.6695H26V22Z" fill="white"/>
<defs>
<linearGradient id="paint0_linear_1453_139919" x1="38" y1="27.4737" x2="64.3182" y2="44.671" gradientUnits="userSpaceOnUse">
<stop stop-color="#364088"/>
<stop offset="1" stop-color="#6E7EE1"/>
</linearGradient>
<linearGradient id="paint1_linear_1453_139919" x1="18" y1="38.8077" x2="50" y2="38.8077" gradientUnits="userSpaceOnUse">
<stop stop-color="#515FC4"/>
<stop offset="1" stop-color="#7084EA"/>
</linearGradient>
<linearGradient id="paint2_linear_1453_139919" x1="48" y1="10.6316" x2="59.5927" y2="18.7894" gradientUnits="userSpaceOnUse">
<stop stop-color="#364088"/>
<stop offset="1" stop-color="#6E7EE1"/>
</linearGradient>
<linearGradient id="paint3_linear_1453_139919" x1="30.2857" y1="6.28571" x2="40.5714" y2="18.2857" gradientUnits="userSpaceOnUse">
<stop stop-color="#4858AE"/>
<stop offset="1" stop-color="#4E60CE"/>
</linearGradient>
<linearGradient id="paint4_linear_1453_139919" x1="26.8571" y1="2.85714" x2="39.7143" y2="17.8571" gradientUnits="userSpaceOnUse">
<stop stop-color="#4858AE"/>
<stop offset="1" stop-color="#4E60CE"/>
</linearGradient>
<linearGradient id="paint5_linear_1453_139919" x1="26.8571" y1="2.85714" x2="39.7143" y2="17.8571" gradientUnits="userSpaceOnUse">
<stop stop-color="#4858AE"/>
<stop offset="1" stop-color="#4E60CE"/>
</linearGradient>
<linearGradient id="paint6_linear_1453_139919" x1="-1.04308e-07" y1="32" x2="36" y2="32" gradientUnits="userSpaceOnUse">
<stop stop-color="#2A3887"/>
<stop offset="1" stop-color="#4C56B9"/>
</linearGradient>
</defs>
</svg>
