<svg width="64" height="64" viewBox="0 0 64 64" fill="none" xmlns="http://www.w3.org/2000/svg">
<g clip-path="url(#clip0_1455_140447)">
<path d="M32 64C49.6731 64 64 49.6731 64 32C64 14.3269 49.6731 0 32 0C14.3269 0 0 14.3269 0 32C0 49.6731 14.3269 64 32 64Z" fill="url(#paint0_linear_1455_140447)"/>
<path fill-rule="evenodd" clip-rule="evenodd" d="M14.4851 31.6622C23.8137 27.5979 30.0343 24.9184 33.1468 23.6238C42.0335 19.9276 43.8801 19.2855 45.0837 19.2643C45.3484 19.2596 45.9403 19.3252 46.3237 19.6363C46.6474 19.899 46.7365 20.2538 46.7791 20.5029C46.8217 20.752 46.8748 21.3193 46.8326 21.7626C46.3511 26.8226 44.2673 39.1017 43.2072 44.769C42.7586 47.167 41.8754 47.971 41.0203 48.0497C39.162 48.2207 37.7509 46.8216 35.951 45.6418C33.1346 43.7956 31.5435 42.6464 28.8097 40.8448C25.6503 38.7628 27.6984 37.6185 29.4989 35.7484C29.9701 35.259 38.1578 27.8116 38.3163 27.1361C38.3361 27.0516 38.3545 26.7366 38.1674 26.5703C37.9803 26.404 37.7042 26.4609 37.5049 26.5061C37.2224 26.5702 32.7231 29.544 24.0071 35.4276C22.73 36.3046 21.5732 36.7318 20.5368 36.7095C19.3942 36.6848 17.1964 36.0634 15.5625 35.5323C13.5585 34.8809 11.9658 34.5365 12.1045 33.4302C12.1767 32.8539 12.9703 32.2646 14.4851 31.6622Z" fill="white"/>
</g>
<defs>
<linearGradient id="paint0_linear_1455_140447" x1="32" y1="0" x2="32" y2="63.5253" gradientUnits="userSpaceOnUse">
<stop stop-color="#2AABEE"/>
<stop offset="1" stop-color="#229ED9"/>
</linearGradient>
<clipPath id="clip0_1455_140447">
<rect width="64" height="64" fill="white"/>
</clipPath>
</defs>
</svg>
