<svg width="1000" height="1000" viewBox="0 0 1000 1000" fill="none" xmlns="http://www.w3.org/2000/svg">
<circle cx="500" cy="500" r="500" fill="white"/>
<path d="M181.802 818.198C118.868 755.264 76.01 675.082 58.6466 587.791C41.2833 500.499 50.1948 410.019 84.2542 327.792C118.314 245.566 175.991 175.285 249.993 125.839C323.996 76.392 410.998 50 500 50C589.002 50 676.005 76.392 750.007 125.839C824.009 175.285 881.686 245.566 915.746 327.792C949.805 410.019 958.717 500.499 941.353 587.791C923.99 675.082 881.132 755.264 818.198 818.198L500 500L181.802 818.198Z" fill="#1DC0AD"/>
<path d="M950 500C950 440.905 938.36 382.389 915.746 327.792C893.131 273.196 859.984 223.588 818.198 181.802C776.412 140.016 726.804 106.869 672.208 84.2542C617.611 61.6396 559.095 50 500 50L500 500H950Z" fill="#7ED2D8"/>
<path d="M722.739 722.739C686.109 759.368 641.011 786.399 591.44 801.436C541.868 816.474 489.353 819.053 438.547 808.947C387.74 798.841 340.21 776.361 300.166 743.498C260.123 710.635 228.802 668.404 208.978 620.545C189.154 572.686 181.439 520.677 186.517 469.125C191.594 417.572 209.307 368.067 238.087 324.995C266.867 281.924 305.825 246.614 351.51 222.195C397.195 197.775 448.198 185 500 185V317.563C469.998 317.563 440.459 324.962 414 339.105C387.54 353.248 364.977 373.698 348.309 398.643C331.641 423.589 321.382 452.261 318.441 482.118C315.501 511.976 319.969 542.097 331.45 569.816C342.931 597.534 361.071 621.993 384.263 641.026C407.455 660.059 434.983 673.078 464.408 678.932C493.834 684.785 524.249 683.29 552.959 674.581C581.669 665.872 607.788 650.217 629.002 629.002L722.739 722.739Z" fill="#115B77"/>
</svg>
